<svg xmlns="http://www.w3.org/2000/svg" xmlns:xlink="http://www.w3.org/1999/xlink" width="1200" zoomAndPan="magnify" viewBox="0 0 900 899.99999" height="1200" preserveAspectRatio="xMidYMid meet" version="1.0"><defs><g/><clipPath id="15fe55ca97"><path d="M 757.277344 167.535156 L 812.777344 167.535156 L 812.777344 223.035156 L 757.277344 223.035156 Z M 757.277344 167.535156 " clip-rule="nonzero"/></clipPath></defs><g fill="#000000" fill-opacity="1"><g transform="translate(87.050201, 355.427519)"><g><path d="M 307.585938 -200.339844 C 303.117188 -198.851562 288.222656 -190.90625 270.097656 -179.984375 C 250.238281 -168.066406 248.75 -166.824219 246.019531 -160.621094 C 244.527344 -157.144531 244.03125 -155.40625 243.039062 -147.460938 C 239.316406 -118.167969 231.867188 -87.882812 224.171875 -68.765625 C 218.957031 -56.105469 212.503906 -45.429688 206.050781 -39.222656 C 201.828125 -35.003906 198.601562 -32.769531 193.886719 -31.03125 C 189.914062 -29.542969 182.21875 -29.292969 177.996094 -30.535156 C 168.8125 -33.515625 151.929688 -45.183594 136.789062 -59.332031 C 102.527344 -91.355469 74.476562 -139.269531 59.085938 -191.898438 C 57.84375 -196.121094 55.359375 -197.859375 52.132812 -196.863281 C 50.394531 -196.367188 34.257812 -185.195312 25.074219 -177.996094 C 14.894531 -170.300781 12.910156 -167.074219 12.910156 -160.371094 C 12.910156 -153.917969 14.894531 -148.457031 27.058594 -124.375 L 35.003906 -108.238281 L 31.777344 -93.09375 C 23.832031 -57.347656 19.117188 -35.75 4.21875 34.257812 C 3.226562 38.976562 2.234375 43.445312 2.234375 44.4375 C 2.234375 47.914062 4.71875 50.148438 8.191406 50.148438 C 12.910156 50.148438 37.238281 33.019531 55.113281 16.882812 C 60.820312 11.917969 61.566406 10.921875 62.0625 8.441406 C 63.054688 4.21875 64.546875 -21.101562 65.289062 -48.90625 C 65.539062 -58.835938 65.785156 -67.523438 66.035156 -68.269531 C 66.285156 -69.757812 66.53125 -69.261719 70.253906 -62.3125 C 85.648438 -33.265625 103.519531 -9.433594 119.90625 4.21875 C 122.140625 5.957031 123.878906 7.695312 124.125 7.945312 C 124.871094 8.9375 134.304688 14.648438 138.277344 16.382812 C 145.476562 19.859375 150.6875 21.101562 157.890625 21.101562 C 161.363281 21.101562 165.089844 21.101562 166.578125 20.605469 C 185.691406 16.382812 203.566406 1.984375 221.191406 -23.335938 C 229.136719 -34.753906 239.8125 -54.117188 246.019531 -68.519531 C 248.253906 -74.226562 248.75 -74.722656 248.75 -73.234375 C 250.238281 -55.609375 258.429688 -20.355469 271.09375 20.605469 C 275.5625 35.5 278.042969 41.210938 281.269531 44.683594 C 284 47.417969 285.492188 47.167969 290.703125 44.1875 C 299.890625 38.726562 315.777344 27.554688 319.253906 24.082031 C 324.960938 18.371094 325.707031 11.171875 321.734375 0 C 321.238281 -0.992188 318.261719 -11.171875 315.03125 -22.34375 C 311.804688 -33.515625 306.34375 -51.386719 303.117188 -62.0625 C 294.675781 -90.363281 293.683594 -95.082031 291.945312 -107.742188 C 290.953125 -115.933594 290.953125 -130.828125 291.945312 -138.523438 C 294.179688 -155.40625 300.136719 -171.292969 309.074219 -184.699219 C 313.792969 -192.148438 314.289062 -193.140625 314.289062 -195.871094 C 314.289062 -197.859375 314.039062 -198.355469 313.296875 -199.347656 C 311.804688 -200.835938 309.820312 -201.085938 307.585938 -200.339844 Z M 307.585938 -200.339844 "/></g></g></g><g fill="#000000" fill-opacity="1"><g transform="translate(425.667368, 355.427519)"><g><path d="M 49.898438 -189.167969 C 49.152344 -188.921875 42.203125 -183.210938 36.742188 -178.246094 C 36.492188 -177.996094 34.507812 -176.507812 32.519531 -174.769531 C 22.09375 -165.832031 21.101562 -164.839844 19.363281 -162.109375 C 17.378906 -159.128906 17.128906 -155.65625 18.371094 -152.921875 C 20.109375 -148.953125 26.5625 -143.738281 33.265625 -140.757812 C 35.996094 -139.519531 36.492188 -139.269531 41.210938 -139.269531 C 45.925781 -139.269531 46.421875 -139.519531 48.65625 -140.511719 C 51.886719 -142 56.351562 -145.476562 63.550781 -151.683594 C 71.25 -158.386719 73.980469 -161.363281 74.226562 -163.351562 C 74.722656 -165.089844 74.226562 -167.570312 72.488281 -169.804688 C 71 -172.039062 58.585938 -185.941406 56.105469 -187.925781 C 54.367188 -189.417969 51.636719 -189.914062 49.898438 -189.167969 Z M 50.644531 -124.125 C 45.925781 -122.386719 44.933594 -121.644531 31.777344 -110.722656 C 29.292969 -108.734375 24.824219 -105.011719 21.847656 -102.527344 C 18.617188 -100.046875 16.136719 -97.8125 15.886719 -97.8125 C 15.640625 -97.5625 13.40625 -95.578125 10.675781 -93.34375 C 4.71875 -88.378906 2.980469 -85.894531 4.964844 -84.652344 C 5.460938 -84.40625 6.703125 -84.15625 7.449219 -84.40625 C 9.929688 -84.652344 14.398438 -83.910156 17.625 -82.171875 C 22.34375 -79.6875 26.066406 -74.476562 27.554688 -67.773438 C 28.796875 -62.808594 29.046875 -53.621094 29.046875 -3.476562 C 29.046875 45.679688 29.046875 46.421875 29.789062 48.160156 C 30.785156 50.148438 32.023438 50.644531 33.761719 50.148438 C 34.753906 49.898438 39.472656 46.671875 62.3125 31.03125 C 66.285156 28.550781 69.757812 25.816406 70.253906 25.320312 C 70.753906 24.578125 71.496094 23.085938 71.746094 21.597656 C 72.738281 19.117188 72.738281 17.625 72.984375 3.226562 C 73.234375 -5.214844 73.484375 -30.535156 73.234375 -52.628906 C 73.234375 -92.351562 73.234375 -93.34375 72.242188 -98.058594 C 69.511719 -112.457031 66.035156 -120.15625 60.324219 -123.382812 C 56.851562 -125.121094 54.367188 -125.367188 50.644531 -124.125 Z M 50.644531 -124.125 "/></g></g></g><g fill="#000000" fill-opacity="1"><g transform="translate(522.237852, 355.427519)"><g><path d="M 73.730469 -108.488281 C 55.609375 -105.011719 34.507812 -92.101562 15.886719 -72.738281 C 9.683594 -66.285156 6.949219 -62.3125 4.964844 -56.601562 C 1.242188 -45.183594 5.214844 -32.769531 14.152344 -28.300781 C 15.144531 -27.554688 20.109375 -26.316406 24.578125 -25.074219 C 62.558594 -15.640625 82.417969 -6.949219 85.648438 1.984375 C 87.632812 6.949219 83.660156 11.917969 74.722656 16.136719 C 68.765625 19.117188 62.808594 19.117188 56.601562 16.136719 C 54.117188 14.894531 52.628906 13.652344 49.652344 10.675781 C 44.683594 5.710938 41.457031 0.992188 37.734375 -6.949219 C 32.519531 -17.875 29.292969 -18.121094 19.117188 -7.695312 C 11.171875 0 1.738281 11.917969 0.992188 14.648438 C 0.25 17.625 2.980469 25.570312 6.949219 31.527344 C 10.921875 37.484375 18.121094 43.445312 24.082031 46.175781 C 30.785156 49.152344 38.726562 49.652344 46.175781 47.914062 C 51.386719 46.421875 61.566406 41.707031 71.496094 35.75 C 95.082031 21.351562 109.976562 5.460938 114.691406 -10.675781 C 115.6875 -13.652344 115.933594 -15.144531 115.933594 -19.363281 C 115.933594 -24.328125 115.933594 -24.578125 114.691406 -27.308594 C 110.472656 -36.246094 99.550781 -41.953125 74.972656 -47.914062 C 62.808594 -50.890625 57.84375 -52.628906 50.644531 -56.105469 C 39.222656 -61.566406 33.761719 -66.53125 33.761719 -71 C 33.761719 -77.207031 46.175781 -82.417969 54.617188 -79.6875 C 61.816406 -77.207031 67.277344 -71.992188 76.460938 -58.835938 C 80.433594 -53.125 81.425781 -51.886719 83.660156 -51.386719 C 85.398438 -51.140625 86.640625 -51.386719 88.875 -53.125 C 92.597656 -56.105469 107.492188 -73.730469 112.210938 -80.929688 C 115.1875 -85.398438 115.4375 -86.640625 113.949219 -90.613281 C 112.457031 -94.832031 110.472656 -97.8125 106.996094 -101.039062 C 103.519531 -104.515625 99.550781 -106.5 94.335938 -107.988281 C 89.621094 -109.230469 79.6875 -109.480469 73.730469 -108.488281 Z M 73.730469 -108.488281 "/></g></g></g><g fill="#000000" fill-opacity="1"><g transform="translate(650.832934, 355.427519)"><g><path d="M 73.730469 -108.488281 C 55.609375 -105.011719 34.507812 -92.101562 15.886719 -72.738281 C 9.683594 -66.285156 6.949219 -62.3125 4.964844 -56.601562 C 1.242188 -45.183594 5.214844 -32.769531 14.152344 -28.300781 C 15.144531 -27.554688 20.109375 -26.316406 24.578125 -25.074219 C 62.558594 -15.640625 82.417969 -6.949219 85.648438 1.984375 C 87.632812 6.949219 83.660156 11.917969 74.722656 16.136719 C 68.765625 19.117188 62.808594 19.117188 56.601562 16.136719 C 54.117188 14.894531 52.628906 13.652344 49.652344 10.675781 C 44.683594 5.710938 41.457031 0.992188 37.734375 -6.949219 C 32.519531 -17.875 29.292969 -18.121094 19.117188 -7.695312 C 11.171875 0 1.738281 11.917969 0.992188 14.648438 C 0.25 17.625 2.980469 25.570312 6.949219 31.527344 C 10.921875 37.484375 18.121094 43.445312 24.082031 46.175781 C 30.785156 49.152344 38.726562 49.652344 46.175781 47.914062 C 51.386719 46.421875 61.566406 41.707031 71.496094 35.75 C 95.082031 21.351562 109.976562 5.460938 114.691406 -10.675781 C 115.6875 -13.652344 115.933594 -15.144531 115.933594 -19.363281 C 115.933594 -24.328125 115.933594 -24.578125 114.691406 -27.308594 C 110.472656 -36.246094 99.550781 -41.953125 74.972656 -47.914062 C 62.808594 -50.890625 57.84375 -52.628906 50.644531 -56.105469 C 39.222656 -61.566406 33.761719 -66.53125 33.761719 -71 C 33.761719 -77.207031 46.175781 -82.417969 54.617188 -79.6875 C 61.816406 -77.207031 67.277344 -71.992188 76.460938 -58.835938 C 80.433594 -53.125 81.425781 -51.886719 83.660156 -51.386719 C 85.398438 -51.140625 86.640625 -51.386719 88.875 -53.125 C 92.597656 -56.105469 107.492188 -73.730469 112.210938 -80.929688 C 115.1875 -85.398438 115.4375 -86.640625 113.949219 -90.613281 C 112.457031 -94.832031 110.472656 -97.8125 106.996094 -101.039062 C 103.519531 -104.515625 99.550781 -106.5 94.335938 -107.988281 C 89.621094 -109.230469 79.6875 -109.480469 73.730469 -108.488281 Z M 73.730469 -108.488281 "/></g></g></g><g fill="#000000" fill-opacity="1"><g transform="translate(87.050201, 698.252741)"><g><path d="M 307.585938 -200.339844 C 303.117188 -198.851562 288.222656 -190.90625 270.097656 -179.984375 C 250.238281 -168.066406 248.75 -166.824219 246.019531 -160.621094 C 244.527344 -157.144531 244.03125 -155.40625 243.039062 -147.460938 C 239.316406 -118.167969 231.867188 -87.882812 224.171875 -68.765625 C 218.957031 -56.105469 212.503906 -45.429688 206.050781 -39.222656 C 201.828125 -35.003906 198.601562 -32.769531 193.886719 -31.03125 C 189.914062 -29.542969 182.21875 -29.292969 177.996094 -30.535156 C 168.8125 -33.515625 151.929688 -45.183594 136.789062 -59.332031 C 102.527344 -91.355469 74.476562 -139.269531 59.085938 -191.898438 C 57.84375 -196.121094 55.359375 -197.859375 52.132812 -196.863281 C 50.394531 -196.367188 34.257812 -185.195312 25.074219 -177.996094 C 14.894531 -170.300781 12.910156 -167.074219 12.910156 -160.371094 C 12.910156 -153.917969 14.894531 -148.457031 27.058594 -124.375 L 35.003906 -108.238281 L 31.777344 -93.09375 C 23.832031 -57.347656 19.117188 -35.75 4.21875 34.257812 C 3.226562 38.976562 2.234375 43.445312 2.234375 44.4375 C 2.234375 47.914062 4.71875 50.148438 8.191406 50.148438 C 12.910156 50.148438 37.238281 33.019531 55.113281 16.882812 C 60.820312 11.917969 61.566406 10.921875 62.0625 8.441406 C 63.054688 4.21875 64.546875 -21.101562 65.289062 -48.90625 C 65.539062 -58.835938 65.785156 -67.523438 66.035156 -68.269531 C 66.285156 -69.757812 66.53125 -69.261719 70.253906 -62.3125 C 85.648438 -33.265625 103.519531 -9.433594 119.90625 4.21875 C 122.140625 5.957031 123.878906 7.695312 124.125 7.945312 C 124.871094 8.9375 134.304688 14.648438 138.277344 16.382812 C 145.476562 19.859375 150.6875 21.101562 157.890625 21.101562 C 161.363281 21.101562 165.089844 21.101562 166.578125 20.605469 C 185.691406 16.382812 203.566406 1.984375 221.191406 -23.335938 C 229.136719 -34.753906 239.8125 -54.117188 246.019531 -68.519531 C 248.253906 -74.226562 248.75 -74.722656 248.75 -73.234375 C 250.238281 -55.609375 258.429688 -20.355469 271.09375 20.605469 C 275.5625 35.5 278.042969 41.210938 281.269531 44.683594 C 284 47.417969 285.492188 47.167969 290.703125 44.1875 C 299.890625 38.726562 315.777344 27.554688 319.253906 24.082031 C 324.960938 18.371094 325.707031 11.171875 321.734375 0 C 321.238281 -0.992188 318.261719 -11.171875 315.03125 -22.34375 C 311.804688 -33.515625 306.34375 -51.386719 303.117188 -62.0625 C 294.675781 -90.363281 293.683594 -95.082031 291.945312 -107.742188 C 290.953125 -115.933594 290.953125 -130.828125 291.945312 -138.523438 C 294.179688 -155.40625 300.136719 -171.292969 309.074219 -184.699219 C 313.792969 -192.148438 314.289062 -193.140625 314.289062 -195.871094 C 314.289062 -197.859375 314.039062 -198.355469 313.296875 -199.347656 C 311.804688 -200.835938 309.820312 -201.085938 307.585938 -200.339844 Z M 307.585938 -200.339844 "/></g></g></g><g fill="#000000" fill-opacity="1"><g transform="translate(425.667368, 698.252741)"><g><path d="M 49.898438 -189.167969 C 49.152344 -188.921875 42.203125 -183.210938 36.742188 -178.246094 C 36.492188 -177.996094 34.507812 -176.507812 32.519531 -174.769531 C 22.09375 -165.832031 21.101562 -164.839844 19.363281 -162.109375 C 17.378906 -159.128906 17.128906 -155.65625 18.371094 -152.921875 C 20.109375 -148.953125 26.5625 -143.738281 33.265625 -140.757812 C 35.996094 -139.519531 36.492188 -139.269531 41.210938 -139.269531 C 45.925781 -139.269531 46.421875 -139.519531 48.65625 -140.511719 C 51.886719 -142 56.351562 -145.476562 63.550781 -151.683594 C 71.25 -158.386719 73.980469 -161.363281 74.226562 -163.351562 C 74.722656 -165.089844 74.226562 -167.570312 72.488281 -169.804688 C 71 -172.039062 58.585938 -185.941406 56.105469 -187.925781 C 54.367188 -189.417969 51.636719 -189.914062 49.898438 -189.167969 Z M 50.644531 -124.125 C 45.925781 -122.386719 44.933594 -121.644531 31.777344 -110.722656 C 29.292969 -108.734375 24.824219 -105.011719 21.847656 -102.527344 C 18.617188 -100.046875 16.136719 -97.8125 15.886719 -97.8125 C 15.640625 -97.5625 13.40625 -95.578125 10.675781 -93.34375 C 4.71875 -88.378906 2.980469 -85.894531 4.964844 -84.652344 C 5.460938 -84.40625 6.703125 -84.15625 7.449219 -84.40625 C 9.929688 -84.652344 14.398438 -83.910156 17.625 -82.171875 C 22.34375 -79.6875 26.066406 -74.476562 27.554688 -67.773438 C 28.796875 -62.808594 29.046875 -53.621094 29.046875 -3.476562 C 29.046875 45.679688 29.046875 46.421875 29.789062 48.160156 C 30.785156 50.148438 32.023438 50.644531 33.761719 50.148438 C 34.753906 49.898438 39.472656 46.671875 62.3125 31.03125 C 66.285156 28.550781 69.757812 25.816406 70.253906 25.320312 C 70.753906 24.578125 71.496094 23.085938 71.746094 21.597656 C 72.738281 19.117188 72.738281 17.625 72.984375 3.226562 C 73.234375 -5.214844 73.484375 -30.535156 73.234375 -52.628906 C 73.234375 -92.351562 73.234375 -93.34375 72.242188 -98.058594 C 69.511719 -112.457031 66.035156 -120.15625 60.324219 -123.382812 C 56.851562 -125.121094 54.367188 -125.367188 50.644531 -124.125 Z M 50.644531 -124.125 "/></g></g></g><g fill="#000000" fill-opacity="1"><g transform="translate(522.237852, 698.252741)"><g><path d="M 73.730469 -108.488281 C 55.609375 -105.011719 34.507812 -92.101562 15.886719 -72.738281 C 9.683594 -66.285156 6.949219 -62.3125 4.964844 -56.601562 C 1.242188 -45.183594 5.214844 -32.769531 14.152344 -28.300781 C 15.144531 -27.554688 20.109375 -26.316406 24.578125 -25.074219 C 62.558594 -15.640625 82.417969 -6.949219 85.648438 1.984375 C 87.632812 6.949219 83.660156 11.917969 74.722656 16.136719 C 68.765625 19.117188 62.808594 19.117188 56.601562 16.136719 C 54.117188 14.894531 52.628906 13.652344 49.652344 10.675781 C 44.683594 5.710938 41.457031 0.992188 37.734375 -6.949219 C 32.519531 -17.875 29.292969 -18.121094 19.117188 -7.695312 C 11.171875 0 1.738281 11.917969 0.992188 14.648438 C 0.25 17.625 2.980469 25.570312 6.949219 31.527344 C 10.921875 37.484375 18.121094 43.445312 24.082031 46.175781 C 30.785156 49.152344 38.726562 49.652344 46.175781 47.914062 C 51.386719 46.421875 61.566406 41.707031 71.496094 35.75 C 95.082031 21.351562 109.976562 5.460938 114.691406 -10.675781 C 115.6875 -13.652344 115.933594 -15.144531 115.933594 -19.363281 C 115.933594 -24.328125 115.933594 -24.578125 114.691406 -27.308594 C 110.472656 -36.246094 99.550781 -41.953125 74.972656 -47.914062 C 62.808594 -50.890625 57.84375 -52.628906 50.644531 -56.105469 C 39.222656 -61.566406 33.761719 -66.53125 33.761719 -71 C 33.761719 -77.207031 46.175781 -82.417969 54.617188 -79.6875 C 61.816406 -77.207031 67.277344 -71.992188 76.460938 -58.835938 C 80.433594 -53.125 81.425781 -51.886719 83.660156 -51.386719 C 85.398438 -51.140625 86.640625 -51.386719 88.875 -53.125 C 92.597656 -56.105469 107.492188 -73.730469 112.210938 -80.929688 C 115.1875 -85.398438 115.4375 -86.640625 113.949219 -90.613281 C 112.457031 -94.832031 110.472656 -97.8125 106.996094 -101.039062 C 103.519531 -104.515625 99.550781 -106.5 94.335938 -107.988281 C 89.621094 -109.230469 79.6875 -109.480469 73.730469 -108.488281 Z M 73.730469 -108.488281 "/></g></g></g><g fill="#000000" fill-opacity="1"><g transform="translate(650.832934, 698.252741)"><g><path d="M 73.730469 -108.488281 C 55.609375 -105.011719 34.507812 -92.101562 15.886719 -72.738281 C 9.683594 -66.285156 6.949219 -62.3125 4.964844 -56.601562 C 1.242188 -45.183594 5.214844 -32.769531 14.152344 -28.300781 C 15.144531 -27.554688 20.109375 -26.316406 24.578125 -25.074219 C 62.558594 -15.640625 82.417969 -6.949219 85.648438 1.984375 C 87.632812 6.949219 83.660156 11.917969 74.722656 16.136719 C 68.765625 19.117188 62.808594 19.117188 56.601562 16.136719 C 54.117188 14.894531 52.628906 13.652344 49.652344 10.675781 C 44.683594 5.710938 41.457031 0.992188 37.734375 -6.949219 C 32.519531 -17.875 29.292969 -18.121094 19.117188 -7.695312 C 11.171875 0 1.738281 11.917969 0.992188 14.648438 C 0.25 17.625 2.980469 25.570312 6.949219 31.527344 C 10.921875 37.484375 18.121094 43.445312 24.082031 46.175781 C 30.785156 49.152344 38.726562 49.652344 46.175781 47.914062 C 51.386719 46.421875 61.566406 41.707031 71.496094 35.75 C 95.082031 21.351562 109.976562 5.460938 114.691406 -10.675781 C 115.6875 -13.652344 115.933594 -15.144531 115.933594 -19.363281 C 115.933594 -24.328125 115.933594 -24.578125 114.691406 -27.308594 C 110.472656 -36.246094 99.550781 -41.953125 74.972656 -47.914062 C 62.808594 -50.890625 57.84375 -52.628906 50.644531 -56.105469 C 39.222656 -61.566406 33.761719 -66.53125 33.761719 -71 C 33.761719 -77.207031 46.175781 -82.417969 54.617188 -79.6875 C 61.816406 -77.207031 67.277344 -71.992188 76.460938 -58.835938 C 80.433594 -53.125 81.425781 -51.886719 83.660156 -51.386719 C 85.398438 -51.140625 86.640625 -51.386719 88.875 -53.125 C 92.597656 -56.105469 107.492188 -73.730469 112.210938 -80.929688 C 115.1875 -85.398438 115.4375 -86.640625 113.949219 -90.613281 C 112.457031 -94.832031 110.472656 -97.8125 106.996094 -101.039062 C 103.519531 -104.515625 99.550781 -106.5 94.335938 -107.988281 C 89.621094 -109.230469 79.6875 -109.480469 73.730469 -108.488281 Z M 73.730469 -108.488281 "/></g></g></g><path fill="#000000" d="M 785.53125 195.914062 L 779.761719 195.914062 L 779.761719 185.324219 L 785.53125 185.324219 C 789.855469 185.324219 792.097656 187.261719 792.097656 190.601562 C 792.097656 193.941406 789.855469 195.914062 785.53125 195.914062 Z M 797.070312 190.601562 C 797.070312 184.71875 792.742188 181.148438 785.757812 181.148438 L 774.828125 181.148438 L 774.828125 207.71875 L 779.761719 207.71875 L 779.761719 199.976562 L 785.757812 199.976562 C 786.097656 199.976562 786.441406 199.976562 786.78125 199.9375 L 792.210938 207.71875 L 797.523438 207.71875 L 791.414062 198.988281 C 795.019531 197.582031 797.070312 194.621094 797.070312 190.601562 " fill-opacity="1" fill-rule="nonzero"/><g clip-path="url(#15fe55ca97)"><path fill="#000000" d="M 785.027344 218.222656 C 772.378906 218.222656 762.09375 207.933594 762.09375 195.285156 C 762.09375 182.636719 772.378906 172.347656 785.027344 172.347656 C 797.675781 172.347656 807.960938 182.636719 807.960938 195.285156 C 807.960938 207.933594 797.675781 218.222656 785.027344 218.222656 Z M 785.027344 167.535156 C 769.726562 167.535156 757.277344 179.984375 757.277344 195.285156 C 757.277344 210.585938 769.726562 223.035156 785.027344 223.035156 C 800.328125 223.035156 812.777344 210.585938 812.777344 195.285156 C 812.777344 179.984375 800.328125 167.535156 785.027344 167.535156 " fill-opacity="1" fill-rule="nonzero"/></g></svg>