<svg xmlns="http://www.w3.org/2000/svg" xmlns:xlink="http://www.w3.org/1999/xlink" width="1200" zoomAndPan="magnify" viewBox="0 0 900 899.99999" height="1200" preserveAspectRatio="xMidYMid meet" version="1.0"><defs><g/><clipPath id="29570f2d4c"><path d="M 832.394531 389.335938 L 863.894531 389.335938 L 863.894531 420.835938 L 832.394531 420.835938 Z M 832.394531 389.335938 " clip-rule="nonzero"/></clipPath></defs><g fill="#000000" fill-opacity="1"><g transform="translate(57.645521, 486.847985)"><g><path d="M 156.070312 -101.652344 C 153.800781 -100.898438 146.242188 -96.867188 137.046875 -91.324219 C 126.972656 -85.277344 126.214844 -84.648438 124.828125 -81.5 C 124.074219 -79.734375 123.820312 -78.851562 123.316406 -74.820312 C 121.429688 -59.957031 117.648438 -44.589844 113.746094 -34.890625 C 111.097656 -28.46875 107.824219 -23.050781 104.550781 -19.902344 C 102.40625 -17.761719 100.769531 -16.628906 98.378906 -15.746094 C 96.363281 -14.988281 92.457031 -14.863281 90.316406 -15.492188 C 85.65625 -17.003906 77.089844 -22.925781 69.40625 -30.105469 C 52.023438 -46.355469 37.789062 -70.664062 29.980469 -97.371094 C 29.347656 -99.511719 28.089844 -100.394531 26.453125 -99.890625 C 25.570312 -99.636719 17.382812 -93.96875 12.722656 -90.316406 C 7.558594 -86.410156 6.550781 -84.773438 6.550781 -81.371094 C 6.550781 -78.097656 7.558594 -75.324219 13.730469 -63.109375 L 17.761719 -54.921875 L 16.125 -47.234375 C 12.09375 -29.097656 9.699219 -18.140625 2.140625 17.382812 C 1.636719 19.777344 1.132812 22.042969 1.132812 22.546875 C 1.132812 24.3125 2.394531 25.445312 4.15625 25.445312 C 6.550781 25.445312 18.894531 16.753906 27.964844 8.566406 C 30.859375 6.046875 31.238281 5.542969 31.492188 4.28125 C 31.996094 2.140625 32.75 -10.707031 33.128906 -24.816406 C 33.253906 -29.851562 33.378906 -34.261719 33.507812 -34.640625 C 33.632812 -35.394531 33.757812 -35.144531 35.648438 -31.617188 C 43.457031 -16.878906 52.527344 -4.785156 60.839844 2.140625 C 61.972656 3.023438 62.855469 3.90625 62.980469 4.03125 C 63.359375 4.535156 68.144531 7.433594 70.160156 8.3125 C 73.8125 10.078125 76.460938 10.707031 80.113281 10.707031 C 81.875 10.707031 83.765625 10.707031 84.519531 10.453125 C 94.21875 8.3125 103.289062 1.007812 112.234375 -11.839844 C 116.265625 -17.636719 121.679688 -27.460938 124.828125 -34.765625 C 125.964844 -37.664062 126.214844 -37.914062 126.214844 -37.160156 C 126.972656 -28.214844 131.128906 -10.328125 137.550781 10.453125 C 139.820312 18.011719 141.078125 20.910156 142.714844 22.671875 C 144.101562 24.058594 144.859375 23.933594 147.503906 22.421875 C 152.164062 19.648438 160.226562 13.980469 161.988281 12.21875 C 164.886719 9.320312 165.265625 5.667969 163.25 0 C 162.996094 -0.503906 161.484375 -5.667969 159.847656 -11.335938 C 158.210938 -17.003906 155.4375 -26.074219 153.800781 -31.492188 C 149.519531 -45.851562 149.015625 -48.242188 148.132812 -54.667969 C 147.628906 -58.824219 147.628906 -66.382812 148.132812 -70.289062 C 149.265625 -78.851562 152.289062 -86.914062 156.824219 -93.714844 C 159.21875 -97.496094 159.46875 -98 159.46875 -99.386719 C 159.46875 -100.394531 159.34375 -100.644531 158.964844 -101.148438 C 158.210938 -101.902344 157.203125 -102.03125 156.070312 -101.652344 Z M 156.070312 -101.652344 "/></g></g></g><g fill="#000000" fill-opacity="1"><g transform="translate(229.449941, 486.847985)"><g><path d="M 25.320312 -95.984375 C 24.941406 -95.859375 21.414062 -92.960938 18.640625 -90.441406 C 18.515625 -90.316406 17.507812 -89.558594 16.5 -88.679688 C 11.210938 -84.144531 10.707031 -83.640625 9.824219 -82.253906 C 8.816406 -80.742188 8.691406 -78.980469 9.320312 -77.59375 C 10.203125 -75.578125 13.476562 -72.933594 16.878906 -71.421875 C 18.265625 -70.792969 18.515625 -70.664062 20.910156 -70.664062 C 23.304688 -70.664062 23.554688 -70.792969 24.6875 -71.296875 C 26.328125 -72.050781 28.59375 -73.8125 32.246094 -76.964844 C 36.152344 -80.363281 37.535156 -81.875 37.664062 -82.882812 C 37.914062 -83.765625 37.664062 -85.023438 36.78125 -86.160156 C 36.027344 -87.292969 29.726562 -94.347656 28.46875 -95.355469 C 27.585938 -96.109375 26.199219 -96.363281 25.320312 -95.984375 Z M 25.695312 -62.980469 C 23.304688 -62.101562 22.800781 -61.722656 16.125 -56.179688 C 14.863281 -55.171875 12.597656 -53.28125 11.085938 -52.023438 C 9.445312 -50.761719 8.1875 -49.628906 8.0625 -49.628906 C 7.9375 -49.503906 6.800781 -48.496094 5.417969 -47.363281 C 2.394531 -44.84375 1.511719 -43.582031 2.519531 -42.953125 C 2.769531 -42.828125 3.402344 -42.703125 3.777344 -42.828125 C 5.039062 -42.953125 7.304688 -42.574219 8.945312 -41.695312 C 11.335938 -40.433594 13.226562 -37.789062 13.980469 -34.386719 C 14.613281 -31.867188 14.738281 -27.207031 14.738281 -1.761719 C 14.738281 23.175781 14.738281 23.554688 15.117188 24.4375 C 15.621094 25.445312 16.25 25.695312 17.132812 25.445312 C 17.636719 25.320312 20.027344 23.679688 31.617188 15.746094 C 33.632812 14.484375 35.394531 13.101562 35.648438 12.847656 C 35.898438 12.46875 36.277344 11.714844 36.402344 10.957031 C 36.90625 9.699219 36.90625 8.945312 37.03125 1.636719 C 37.160156 -2.644531 37.285156 -15.492188 37.160156 -26.703125 C 37.160156 -46.859375 37.160156 -47.363281 36.65625 -49.753906 C 35.269531 -57.0625 33.507812 -60.964844 30.609375 -62.605469 C 28.84375 -63.484375 27.585938 -63.613281 25.695312 -62.980469 Z M 25.695312 -62.980469 "/></g></g></g><g fill="#000000" fill-opacity="1"><g transform="translate(278.446948, 486.847985)"><g><path d="M 37.410156 -55.046875 C 28.214844 -53.28125 17.507812 -46.730469 8.0625 -36.90625 C 4.914062 -33.632812 3.527344 -31.617188 2.519531 -28.71875 C 0.628906 -22.925781 2.644531 -16.628906 7.179688 -14.359375 C 7.683594 -13.980469 10.203125 -13.351562 12.46875 -12.722656 C 31.742188 -7.9375 41.820312 -3.527344 43.457031 1.007812 C 44.464844 3.527344 42.449219 6.046875 37.914062 8.1875 C 34.890625 9.699219 31.867188 9.699219 28.71875 8.1875 C 27.460938 7.558594 26.703125 6.929688 25.191406 5.417969 C 22.671875 2.898438 21.035156 0.503906 19.144531 -3.527344 C 16.5 -9.070312 14.863281 -9.195312 9.699219 -3.90625 C 5.667969 0 0.882812 6.046875 0.503906 7.433594 C 0.125 8.945312 1.511719 12.972656 3.527344 15.996094 C 5.542969 19.019531 9.195312 22.042969 12.21875 23.429688 C 15.621094 24.941406 19.648438 25.191406 23.429688 24.3125 C 26.074219 23.554688 31.238281 21.160156 36.277344 18.140625 C 48.242188 10.832031 55.800781 2.769531 58.195312 -5.417969 C 58.699219 -6.929688 58.824219 -7.683594 58.824219 -9.824219 C 58.824219 -12.34375 58.824219 -12.46875 58.195312 -13.855469 C 56.054688 -18.390625 50.511719 -21.289062 38.039062 -24.3125 C 31.867188 -25.824219 29.347656 -26.703125 25.695312 -28.46875 C 19.902344 -31.238281 17.132812 -33.757812 17.132812 -36.027344 C 17.132812 -39.175781 23.429688 -41.820312 27.710938 -40.433594 C 31.363281 -39.175781 34.136719 -36.53125 38.796875 -29.851562 C 40.8125 -26.957031 41.316406 -26.328125 42.449219 -26.074219 C 43.332031 -25.949219 43.960938 -26.074219 45.09375 -26.957031 C 46.984375 -28.46875 54.542969 -37.410156 56.933594 -41.0625 C 58.445312 -43.332031 58.574219 -43.960938 57.816406 -45.976562 C 57.0625 -48.117188 56.054688 -49.628906 54.289062 -51.265625 C 52.527344 -53.03125 50.511719 -54.039062 47.867188 -54.792969 C 45.472656 -55.421875 40.433594 -55.550781 37.410156 -55.046875 Z M 37.410156 -55.046875 "/></g></g></g><g fill="#000000" fill-opacity="1"><g transform="translate(343.69231, 486.847985)"><g><path d="M 37.410156 -55.046875 C 28.214844 -53.28125 17.507812 -46.730469 8.0625 -36.90625 C 4.914062 -33.632812 3.527344 -31.617188 2.519531 -28.71875 C 0.628906 -22.925781 2.644531 -16.628906 7.179688 -14.359375 C 7.683594 -13.980469 10.203125 -13.351562 12.46875 -12.722656 C 31.742188 -7.9375 41.820312 -3.527344 43.457031 1.007812 C 44.464844 3.527344 42.449219 6.046875 37.914062 8.1875 C 34.890625 9.699219 31.867188 9.699219 28.71875 8.1875 C 27.460938 7.558594 26.703125 6.929688 25.191406 5.417969 C 22.671875 2.898438 21.035156 0.503906 19.144531 -3.527344 C 16.5 -9.070312 14.863281 -9.195312 9.699219 -3.90625 C 5.667969 0 0.882812 6.046875 0.503906 7.433594 C 0.125 8.945312 1.511719 12.972656 3.527344 15.996094 C 5.542969 19.019531 9.195312 22.042969 12.21875 23.429688 C 15.621094 24.941406 19.648438 25.191406 23.429688 24.3125 C 26.074219 23.554688 31.238281 21.160156 36.277344 18.140625 C 48.242188 10.832031 55.800781 2.769531 58.195312 -5.417969 C 58.699219 -6.929688 58.824219 -7.683594 58.824219 -9.824219 C 58.824219 -12.34375 58.824219 -12.46875 58.195312 -13.855469 C 56.054688 -18.390625 50.511719 -21.289062 38.039062 -24.3125 C 31.867188 -25.824219 29.347656 -26.703125 25.695312 -28.46875 C 19.902344 -31.238281 17.132812 -33.757812 17.132812 -36.027344 C 17.132812 -39.175781 23.429688 -41.820312 27.710938 -40.433594 C 31.363281 -39.175781 34.136719 -36.53125 38.796875 -29.851562 C 40.8125 -26.957031 41.316406 -26.328125 42.449219 -26.074219 C 43.332031 -25.949219 43.960938 -26.074219 45.09375 -26.957031 C 46.984375 -28.46875 54.542969 -37.410156 56.933594 -41.0625 C 58.445312 -43.332031 58.574219 -43.960938 57.816406 -45.976562 C 57.0625 -48.117188 56.054688 -49.628906 54.289062 -51.265625 C 52.527344 -53.03125 50.511719 -54.039062 47.867188 -54.792969 C 45.472656 -55.421875 40.433594 -55.550781 37.410156 -55.046875 Z M 37.410156 -55.046875 "/></g></g></g><g fill="#000000" fill-opacity="1"><g transform="translate(408.937672, 486.847985)"><g><path d="M 24.3125 -19.273438 C 21.792969 -17.761719 8.691406 -4.03125 8.945312 -3.273438 C 9.195312 -2.265625 57.816406 -2.015625 59.078125 -3.023438 C 60.839844 -4.28125 70.664062 -15.746094 71.042969 -16.878906 C 71.800781 -19.777344 72.429688 -19.648438 50.132812 -19.648438 C 38.796875 -19.648438 28.71875 -19.777344 27.710938 -20.027344 C 26.453125 -20.152344 25.320312 -19.902344 24.3125 -19.273438 Z M 24.3125 -19.273438 "/></g></g></g><g fill="#000000" fill-opacity="1"><g transform="translate(491.061199, 486.847985)"><g><path d="M 156.070312 -101.652344 C 153.800781 -100.898438 146.242188 -96.867188 137.046875 -91.324219 C 126.972656 -85.277344 126.214844 -84.648438 124.828125 -81.5 C 124.074219 -79.734375 123.820312 -78.851562 123.316406 -74.820312 C 121.429688 -59.957031 117.648438 -44.589844 113.746094 -34.890625 C 111.097656 -28.46875 107.824219 -23.050781 104.550781 -19.902344 C 102.40625 -17.761719 100.769531 -16.628906 98.378906 -15.746094 C 96.363281 -14.988281 92.457031 -14.863281 90.316406 -15.492188 C 85.65625 -17.003906 77.089844 -22.925781 69.40625 -30.105469 C 52.023438 -46.355469 37.789062 -70.664062 29.980469 -97.371094 C 29.347656 -99.511719 28.089844 -100.394531 26.453125 -99.890625 C 25.570312 -99.636719 17.382812 -93.96875 12.722656 -90.316406 C 7.558594 -86.410156 6.550781 -84.773438 6.550781 -81.371094 C 6.550781 -78.097656 7.558594 -75.324219 13.730469 -63.109375 L 17.761719 -54.921875 L 16.125 -47.234375 C 12.09375 -29.097656 9.699219 -18.140625 2.140625 17.382812 C 1.636719 19.777344 1.132812 22.042969 1.132812 22.546875 C 1.132812 24.3125 2.394531 25.445312 4.15625 25.445312 C 6.550781 25.445312 18.894531 16.753906 27.964844 8.566406 C 30.859375 6.046875 31.238281 5.542969 31.492188 4.28125 C 31.996094 2.140625 32.75 -10.707031 33.128906 -24.816406 C 33.253906 -29.851562 33.378906 -34.261719 33.507812 -34.640625 C 33.632812 -35.394531 33.757812 -35.144531 35.648438 -31.617188 C 43.457031 -16.878906 52.527344 -4.785156 60.839844 2.140625 C 61.972656 3.023438 62.855469 3.90625 62.980469 4.03125 C 63.359375 4.535156 68.144531 7.433594 70.160156 8.3125 C 73.8125 10.078125 76.460938 10.707031 80.113281 10.707031 C 81.875 10.707031 83.765625 10.707031 84.519531 10.453125 C 94.21875 8.3125 103.289062 1.007812 112.234375 -11.839844 C 116.265625 -17.636719 121.679688 -27.460938 124.828125 -34.765625 C 125.964844 -37.664062 126.214844 -37.914062 126.214844 -37.160156 C 126.972656 -28.214844 131.128906 -10.328125 137.550781 10.453125 C 139.820312 18.011719 141.078125 20.910156 142.714844 22.671875 C 144.101562 24.058594 144.859375 23.933594 147.503906 22.421875 C 152.164062 19.648438 160.226562 13.980469 161.988281 12.21875 C 164.886719 9.320312 165.265625 5.667969 163.25 0 C 162.996094 -0.503906 161.484375 -5.667969 159.847656 -11.335938 C 158.210938 -17.003906 155.4375 -26.074219 153.800781 -31.492188 C 149.519531 -45.851562 149.015625 -48.242188 148.132812 -54.667969 C 147.628906 -58.824219 147.628906 -66.382812 148.132812 -70.289062 C 149.265625 -78.851562 152.289062 -86.914062 156.824219 -93.714844 C 159.21875 -97.496094 159.46875 -98 159.46875 -99.386719 C 159.46875 -100.394531 159.34375 -100.644531 158.964844 -101.148438 C 158.210938 -101.902344 157.203125 -102.03125 156.070312 -101.652344 Z M 156.070312 -101.652344 "/></g></g></g><g fill="#000000" fill-opacity="1"><g transform="translate(662.865589, 486.847985)"><g><path d="M 25.320312 -95.984375 C 24.941406 -95.859375 21.414062 -92.960938 18.640625 -90.441406 C 18.515625 -90.316406 17.507812 -89.558594 16.5 -88.679688 C 11.210938 -84.144531 10.707031 -83.640625 9.824219 -82.253906 C 8.816406 -80.742188 8.691406 -78.980469 9.320312 -77.59375 C 10.203125 -75.578125 13.476562 -72.933594 16.878906 -71.421875 C 18.265625 -70.792969 18.515625 -70.664062 20.910156 -70.664062 C 23.304688 -70.664062 23.554688 -70.792969 24.6875 -71.296875 C 26.328125 -72.050781 28.59375 -73.8125 32.246094 -76.964844 C 36.152344 -80.363281 37.535156 -81.875 37.664062 -82.882812 C 37.914062 -83.765625 37.664062 -85.023438 36.78125 -86.160156 C 36.027344 -87.292969 29.726562 -94.347656 28.46875 -95.355469 C 27.585938 -96.109375 26.199219 -96.363281 25.320312 -95.984375 Z M 25.695312 -62.980469 C 23.304688 -62.101562 22.800781 -61.722656 16.125 -56.179688 C 14.863281 -55.171875 12.597656 -53.28125 11.085938 -52.023438 C 9.445312 -50.761719 8.1875 -49.628906 8.0625 -49.628906 C 7.9375 -49.503906 6.800781 -48.496094 5.417969 -47.363281 C 2.394531 -44.84375 1.511719 -43.582031 2.519531 -42.953125 C 2.769531 -42.828125 3.402344 -42.703125 3.777344 -42.828125 C 5.039062 -42.953125 7.304688 -42.574219 8.945312 -41.695312 C 11.335938 -40.433594 13.226562 -37.789062 13.980469 -34.386719 C 14.613281 -31.867188 14.738281 -27.207031 14.738281 -1.761719 C 14.738281 23.175781 14.738281 23.554688 15.117188 24.4375 C 15.621094 25.445312 16.25 25.695312 17.132812 25.445312 C 17.636719 25.320312 20.027344 23.679688 31.617188 15.746094 C 33.632812 14.484375 35.394531 13.101562 35.648438 12.847656 C 35.898438 12.46875 36.277344 11.714844 36.402344 10.957031 C 36.90625 9.699219 36.90625 8.945312 37.03125 1.636719 C 37.160156 -2.644531 37.285156 -15.492188 37.160156 -26.703125 C 37.160156 -46.859375 37.160156 -47.363281 36.65625 -49.753906 C 35.269531 -57.0625 33.507812 -60.964844 30.609375 -62.605469 C 28.84375 -63.484375 27.585938 -63.613281 25.695312 -62.980469 Z M 25.695312 -62.980469 "/></g></g></g><g fill="#000000" fill-opacity="1"><g transform="translate(711.862596, 486.847985)"><g><path d="M 37.410156 -55.046875 C 28.214844 -53.28125 17.507812 -46.730469 8.0625 -36.90625 C 4.914062 -33.632812 3.527344 -31.617188 2.519531 -28.71875 C 0.628906 -22.925781 2.644531 -16.628906 7.179688 -14.359375 C 7.683594 -13.980469 10.203125 -13.351562 12.46875 -12.722656 C 31.742188 -7.9375 41.820312 -3.527344 43.457031 1.007812 C 44.464844 3.527344 42.449219 6.046875 37.914062 8.1875 C 34.890625 9.699219 31.867188 9.699219 28.71875 8.1875 C 27.460938 7.558594 26.703125 6.929688 25.191406 5.417969 C 22.671875 2.898438 21.035156 0.503906 19.144531 -3.527344 C 16.5 -9.070312 14.863281 -9.195312 9.699219 -3.90625 C 5.667969 0 0.882812 6.046875 0.503906 7.433594 C 0.125 8.945312 1.511719 12.972656 3.527344 15.996094 C 5.542969 19.019531 9.195312 22.042969 12.21875 23.429688 C 15.621094 24.941406 19.648438 25.191406 23.429688 24.3125 C 26.074219 23.554688 31.238281 21.160156 36.277344 18.140625 C 48.242188 10.832031 55.800781 2.769531 58.195312 -5.417969 C 58.699219 -6.929688 58.824219 -7.683594 58.824219 -9.824219 C 58.824219 -12.34375 58.824219 -12.46875 58.195312 -13.855469 C 56.054688 -18.390625 50.511719 -21.289062 38.039062 -24.3125 C 31.867188 -25.824219 29.347656 -26.703125 25.695312 -28.46875 C 19.902344 -31.238281 17.132812 -33.757812 17.132812 -36.027344 C 17.132812 -39.175781 23.429688 -41.820312 27.710938 -40.433594 C 31.363281 -39.175781 34.136719 -36.53125 38.796875 -29.851562 C 40.8125 -26.957031 41.316406 -26.328125 42.449219 -26.074219 C 43.332031 -25.949219 43.960938 -26.074219 45.09375 -26.957031 C 46.984375 -28.46875 54.542969 -37.410156 56.933594 -41.0625 C 58.445312 -43.332031 58.574219 -43.960938 57.816406 -45.976562 C 57.0625 -48.117188 56.054688 -49.628906 54.289062 -51.265625 C 52.527344 -53.03125 50.511719 -54.039062 47.867188 -54.792969 C 45.472656 -55.421875 40.433594 -55.550781 37.410156 -55.046875 Z M 37.410156 -55.046875 "/></g></g></g><g fill="#000000" fill-opacity="1"><g transform="translate(777.107958, 486.847985)"><g><path d="M 37.410156 -55.046875 C 28.214844 -53.28125 17.507812 -46.730469 8.0625 -36.90625 C 4.914062 -33.632812 3.527344 -31.617188 2.519531 -28.71875 C 0.628906 -22.925781 2.644531 -16.628906 7.179688 -14.359375 C 7.683594 -13.980469 10.203125 -13.351562 12.46875 -12.722656 C 31.742188 -7.9375 41.820312 -3.527344 43.457031 1.007812 C 44.464844 3.527344 42.449219 6.046875 37.914062 8.1875 C 34.890625 9.699219 31.867188 9.699219 28.71875 8.1875 C 27.460938 7.558594 26.703125 6.929688 25.191406 5.417969 C 22.671875 2.898438 21.035156 0.503906 19.144531 -3.527344 C 16.5 -9.070312 14.863281 -9.195312 9.699219 -3.90625 C 5.667969 0 0.882812 6.046875 0.503906 7.433594 C 0.125 8.945312 1.511719 12.972656 3.527344 15.996094 C 5.542969 19.019531 9.195312 22.042969 12.21875 23.429688 C 15.621094 24.941406 19.648438 25.191406 23.429688 24.3125 C 26.074219 23.554688 31.238281 21.160156 36.277344 18.140625 C 48.242188 10.832031 55.800781 2.769531 58.195312 -5.417969 C 58.699219 -6.929688 58.824219 -7.683594 58.824219 -9.824219 C 58.824219 -12.34375 58.824219 -12.46875 58.195312 -13.855469 C 56.054688 -18.390625 50.511719 -21.289062 38.039062 -24.3125 C 31.867188 -25.824219 29.347656 -26.703125 25.695312 -28.46875 C 19.902344 -31.238281 17.132812 -33.757812 17.132812 -36.027344 C 17.132812 -39.175781 23.429688 -41.820312 27.710938 -40.433594 C 31.363281 -39.175781 34.136719 -36.53125 38.796875 -29.851562 C 40.8125 -26.957031 41.316406 -26.328125 42.449219 -26.074219 C 43.332031 -25.949219 43.960938 -26.074219 45.09375 -26.957031 C 46.984375 -28.46875 54.542969 -37.410156 56.933594 -41.0625 C 58.445312 -43.332031 58.574219 -43.960938 57.816406 -45.976562 C 57.0625 -48.117188 56.054688 -49.628906 54.289062 -51.265625 C 52.527344 -53.03125 50.511719 -54.039062 47.867188 -54.792969 C 45.472656 -55.421875 40.433594 -55.550781 37.410156 -55.046875 Z M 37.410156 -55.046875 "/></g></g></g><path fill="#000000" d="M 848.429688 405.441406 L 845.15625 405.441406 L 845.15625 399.433594 L 848.429688 399.433594 C 850.882812 399.433594 852.15625 400.53125 852.15625 402.425781 C 852.15625 404.320312 850.882812 405.441406 848.429688 405.441406 Z M 854.976562 402.425781 C 854.976562 399.085938 852.519531 397.0625 848.558594 397.0625 L 842.355469 397.0625 L 842.355469 412.140625 L 845.15625 412.140625 L 845.15625 407.746094 L 848.558594 407.746094 C 848.75 407.746094 848.945312 407.746094 849.140625 407.726562 L 852.21875 412.140625 L 855.234375 412.140625 L 851.765625 407.1875 C 853.8125 406.390625 854.976562 404.710938 854.976562 402.425781 " fill-opacity="1" fill-rule="nonzero"/><g clip-path="url(#29570f2d4c)"><path fill="#000000" d="M 848.144531 418.101562 C 840.964844 418.101562 835.125 412.261719 835.125 405.085938 C 835.125 397.90625 840.964844 392.066406 848.144531 392.066406 C 855.320312 392.066406 861.160156 397.90625 861.160156 405.085938 C 861.160156 412.261719 855.320312 418.101562 848.144531 418.101562 Z M 848.144531 389.335938 C 839.457031 389.335938 832.394531 396.402344 832.394531 405.085938 C 832.394531 413.769531 839.457031 420.835938 848.144531 420.835938 C 856.828125 420.835938 863.894531 413.769531 863.894531 405.085938 C 863.894531 396.402344 856.828125 389.335938 848.144531 389.335938 " fill-opacity="1" fill-rule="nonzero"/></g></svg>