<?xml version="1.0" standalone="no"?>
<!DOCTYPE svg PUBLIC "-//W3C//DTD SVG 20010904//EN"
 "http://www.w3.org/TR/2001/REC-SVG-20010904/DTD/svg10.dtd">
<svg version="1.0" xmlns="http://www.w3.org/2000/svg"
 width="176.000000pt" height="549.000000pt" viewBox="0 0 176.000000 549.000000"
 preserveAspectRatio="xMidYMid meet">

<g transform="translate(0.000000,549.000000) scale(0.100000,-0.100000)"
fill="#000000" stroke="none">
<path d="M1142 5460 c-19 -8 -189 -138 -322 -247 -8 -7 -55 -44 -105 -83 -257
-204 -283 -227 -322 -286 -47 -71 -56 -149 -25 -210 45 -88 201 -207 364 -277
69 -30 80 -32 198 -32 116 0 129 2 184 27 75 36 185 113 361 254 189 151 260
220 268 263 9 45 -6 99 -45 152 -35 50 -343 365 -401 411 -42 34 -112 46 -155
28z"/>
<path d="M1159 3977 c-114 -35 -141 -52 -464 -302 -60 -47 -171 -131 -245
-188 -74 -56 -139 -105 -145 -109 -5 -5 -62 -49 -126 -98 -147 -112 -189 -173
-138 -201 12 -6 38 -9 57 -5 63 10 172 -12 249 -49 119 -59 208 -177 248 -330
29 -112 34 -319 35 -1458 0 -1120 0 -1138 20 -1177 22 -43 52 -57 97 -45 24 6
139 77 703 432 96 61 183 122 192 134 10 13 28 51 40 84 20 55 22 88 30 415 5
195 7 769 5 1275 -3 899 -3 923 -25 1031 -65 329 -155 505 -295 574 -85 41
-143 46 -238 17z"/>
</g>
</svg>
