<?xml version="1.0" standalone="no"?>
<!DOCTYPE svg PUBLIC "-//W3C//DTD SVG 20010904//EN"
 "http://www.w3.org/TR/2001/REC-SVG-20010904/DTD/svg10.dtd">
<svg version="1.0" xmlns="http://www.w3.org/2000/svg"
 width="708.000000pt" height="552.000000pt" viewBox="0 0 708.000000 552.000000"
 preserveAspectRatio="xMidYMid meet">

<g transform="translate(0.000000,552.000000) scale(0.100000,-0.100000)"
fill="#000000" stroke="none">
<path d="M6705 5506 c-96 -31 -423 -209 -818 -445 -439 -263 -472 -289 -532
-425 -34 -77 -42 -114 -65 -291 -83 -639 -243 -1306 -415 -1727 -114 -278
-256 -510 -396 -648 -94 -93 -163 -139 -267 -178 -87 -33 -253 -37 -347 -9
-203 62 -572 319 -903 629 -751 704 -1368 1757 -1706 2909 -28 95 -81 133
-154 110 -37 -11 -391 -259 -591 -414 -223 -172 -271 -242 -271 -390 0 -137
48 -258 311 -787 l177 -355 -73 -330 c-174 -785 -277 -1262 -605 -2796 -22
-102 -40 -202 -40 -223 0 -76 50 -126 127 -126 108 1 639 377 1031 729 123
112 140 132 153 188 21 93 52 647 69 1258 6 215 14 405 16 424 5 32 11 24 93
-130 341 -636 732 -1160 1090 -1461 47 -40 88 -76 91 -79 21 -24 226 -148 312
-189 158 -75 272 -103 433 -104 75 0 155 5 190 13 417 93 810 409 1198 964
175 249 409 678 543 992 52 123 59 136 62 105 31 -389 213 -1160 486 -2062 98
-324 153 -452 228 -529 55 -56 89 -54 204 14 204 121 550 364 626 440 124 124
140 281 53 527 -9 25 -75 245 -146 490 -72 245 -188 639 -259 875 -185 619
-210 721 -246 1002 -23 175 -23 507 0 673 50 373 178 720 374 1015 105 160
115 181 116 242 1 43 -3 57 -24 77 -32 31 -74 38 -125 22z"/>
</g>
</svg>
