<?xml version="1.0" standalone="no"?>
<!DOCTYPE svg PUBLIC "-//W3C//DTD SVG 20010904//EN"
 "http://www.w3.org/TR/2001/REC-SVG-20010904/DTD/svg10.dtd">
<svg version="1.0" xmlns="http://www.w3.org/2000/svg"
 width="273.000000pt" height="376.000000pt" viewBox="0 0 273.000000 376.000000"
 preserveAspectRatio="xMidYMid meet">

<g transform="translate(0.000000,376.000000) scale(0.100000,-0.100000)"
fill="#000000" stroke="none">
<path d="M1725 3731 c-428 -78 -929 -387 -1370 -843 -147 -151 -209 -245 -257
-383 -92 -267 3 -564 214 -671 28 -14 141 -48 250 -75 897 -221 1368 -430
1447 -642 43 -113 -50 -231 -259 -331 -146 -70 -286 -70 -429 0 -59 29 -96 58
-167 128 -116 116 -191 228 -281 416 -124 259 -201 263 -443 20 -187 -186
-411 -464 -427 -529 -18 -74 47 -258 143 -402 91 -138 260 -283 401 -345 160
-71 348 -85 528 -39 121 30 362 147 596 287 558 336 910 712 1025 1094 22 74
27 110 28 209 1 115 0 123 -31 187 -101 213 -358 346 -940 489 -289 71 -405
110 -578 194 -265 130 -395 245 -395 350 0 151 291 272 490 205 175 -59 303
-180 517 -491 93 -136 122 -165 170 -175 46 -9 72 0 126 42 87 68 438 486 553
658 68 103 74 131 41 225 -37 104 -82 174 -164 251 -82 77 -179 129 -299 161
-113 31 -351 36 -489 10z"/>
</g>
</svg>
